:SAMPLES-PER-SECOND 30
:FULLY-SPECIFIED
:DEGREES
209
root  -41.9818 39.6135 -4.09205 -179.848 -56.0659 173.153
RightUpLeg  -0.520301 14.7047 -19.4361
RightLeg  21.8233 -7.18985 -4.52533
RightFoot  6.70872 -3.8861 24.8326
RightToes  -5.8209e-011 0 -3.6325e-017
Spine  10.3799 -2.29484 2.48281
Spine1  -6.84275 -2.24013 0.436359
HEad  6.65679 -0.536161 -4.98704
LeftShoulder1  0.528878 10.6223 18.0439
LeftArm  -66.8343 -14.952 -16.2589
LeftForeArm  127.69 -47.3041 -166.722
LeftHand  -1.61442 -0.617406 30.839
RightShoulder  1.13982 -11.417 -25.7759
RightArm  -89.5042 -3.16386 16.3048
RightForeArm  127.001 43.2022 168.065
RightHand  -4.61713 8.07841 -38.6087
LeftUpLeg  -9.41175 3.70531 0.335876
LeftLeg  23.0222 4.06777 1.84968
LeftFoot  -2.05922 0.645011 -7.72166
LeftToes  6.82088e-011 -2.45093e-011 5.71991e-013
210
root  -42.8064 41.8335 -3.88617 -179.759 -52.4202 176.667
RightUpLeg  -0.715776 -3.56589 -18.3918
RightLeg  9.62539 -2.27012 -4.1199
RightFoot  29.235 -7.19133 19.8689
RightToes  -5.8209e-011 0 -3.6325e-017
Spine  6.22318 -2.04744 5.2553
Spine1  -8.80866 -2.0231 1.71241
HEad  6.71123 -1.23718 -5.5922
LeftShoulder1  0.93353 12.8433 20.8857
LeftArm  -66.2823 -18.0776 -15.2496
LeftForeArm  113.196 -59.4074 -158.596
LeftHand  -0.917618 2.07809 26.069
RightShoulder  1.42619 -12.2637 -27.8873
RightArm  -89.8633 0.689687 15.4454
RightForeArm  114.642 51.2709 163.796
RightHand  -3.41019 5.00324 -37.8157
LeftUpLeg  -4.15591 3.23668 2.11539
LeftLeg  6.53808 11.073 0.203799
LeftFoot  15.5709 2.48767 -10.4624
LeftToes  6.82088e-011 -2.45093e-011 5.71991e-013
211
root  -43.3299 43.48 -3.78707 -177.726 -50.8793 177.507
RightUpLeg  -2.31137 -13.5778 -17.6251
RightLeg  6.15463 -7.36296 -2.3411
RightFoot  39.9878 -7.44918 15.9623
RightToes  -5.8209e-011 0 -3.6325e-017
Spine  1.93864 -2.34337 4.58405
Spine1  -10.3347 -2.69231 4.10759
HEad  3.18755 -1.56842 -5.63459
LeftShoulder1  1.3238 12.0591 27.4672
LeftArm  -72.8598 -25.6592 -11.6518
LeftForeArm  73.3579 -72.9859 -86.8516
LeftHand  2.38723 12.7996 24.7316
RightShoulder  1.53066 -11.3452 -31.5632
RightArm  -82.3925 6.9807 16.3371
RightForeArm  115.495 70.513 141.308
RightHand  -7.47403 11.9558 -45.4289
LeftUpLeg  -2.5831 3.07926 3.46568
LeftLeg  -3.15734 15.3919 -3.07404
LeftFoot  33.9202 6.14472 -15.2233
LeftToes  6.82088e-011 -2.45093e-011 5.71991e-013
212
root  -43.5244 44.6903 -3.53966 -178.046 -50.7709 176.512
RightUpLeg  -2.20372 -13.0728 -16.9898
RightLeg  9.81572 -11.3253 -2.87801
RightFoot  37.3557 -6.50505 14.9061
RightToes  -5.8209e-011 0 -3.6325e-017
Spine  3.16929 -3.45066 2.76015
Spine1  -12.8596 -3.68852 4.75113
HEad  -1.82584 -1.99185 -6.30371
LeftShoulder1  0.898371 7.94898 32.0372
LeftArm  -91.2956 -33.1492 -5.88274
LeftForeArm  140.143 -33.8566 2.50408
LeftHand  10.282 32.6238 41.5879
RightShoulder  1.24445 -8.88666 -35.2832
RightArm  -74.5593 10.2649 19.0154
RightForeArm  44.3992 77.227 51.9267
RightHand  -13.5075 15.9533 -66.5968
LeftUpLeg  -1.75401 3.06097 3.74193
LeftLeg  -2.0823 9.04385 -2.9743
LeftFoot  42.826 9.0903 -18.3263
LeftToes  6.82088e-011 -2.45093e-011 5.71991e-013
213
root  -43.5931 45.6601 -3.232 179.16 -49.2764 174.842
RightUpLeg  0.594482 -9.89003 -15.675
RightLeg  12.7585 -5.76767 -4.45442
RightFoot  31.5885 -5.22036 13.803
RightToes  -5.8209e-011 0 -3.6325e-017
Spine  7.6547 -4.21721 1.73875
Spine1  -14.1701 -4.03355 2.31669
HEad  -4.52703 -2.09924 -5.85135
LeftShoulder1  0.618916 6.6569 31.9254
LeftArm  -81.6964 -39.7663 -4.29542
LeftForeArm  92.9874 -21.8772 4.12502
LeftHand  8.283 27.178 41.7986
RightShoulder  0.804032 -6.88465 -35.8207
RightArm  -70.9988 12.5852 20.3085
RightForeArm  8.03245 67.2747 26.865
RightHand  -13.1851 14.3928 -68.4873
LeftUpLeg  0.631405 1.28123 2.64281
LeftLeg  3.49982 -2.62113 -0.753191
LeftFoot  41.2945 8.3189 -17.2185
LeftToes  6.82088e-011 -2.45093e-011 5.71991e-013
214
root  -43.7696 46.4096 -3.08985 178.052 -44.8027 173.505
RightUpLeg  1.9184 -5.12269 -13.4018
RightLeg  13.0459 -1.51489 -4.344
RightFoot  29.9723 -4.66651 12.9101
RightToes  -5.8209e-011 0 -3.6325e-017
Spine  7.66212 -3.54357 1.46599
Spine1  -11.9734 -3.12259 -1.18082
HEad  -3.88334 -1.24663 -3.46451
LeftShoulder1  1.13809 9.55468 30.7701
LeftArm  -62.223 -42.3358 -9.40739
LeftForeArm  18.4185 -36.5016 -8.51515
LeftHand  4.44233 16.584 40.2547
RightShoulder  0.676423 -6.68592 -33.2757
RightArm  -71.0528 16.9795 17.6419
RightForeArm  7.72134 66.1273 26.1335
RightHand  -12.7942 14.6259 -66.2704
LeftUpLeg  2.58589 -0.322543 1.66037
LeftLeg  6.38772 -4.20736 0.28419
LeftFoot  37.6739 5.62097 -12.8625
LeftToes  6.82088e-011 -2.45093e-011 5.71991e-013
215
root  -44.0652 46.843 -3.09231 -179.414 -39.1792 172.566
RightUpLeg  -0.190898 -4.33231 -11.8643
RightLeg  12.289 -1.6473 -3.20146
RightFoot  33.4101 -6.38939 15.9774
RightToes  -5.8209e-011 0 -3.6325e-017
Spine  1.75353 -1.77834 1.13442
Spine1  -7.8647 -1.26446 -3.29469
HEad  -3.24708 -0.530157 -1.7106
LeftShoulder1  1.49421 11.2576 31.3572
LeftArm  -66.3317 -38.4144 -11.6327
LeftForeArm  -10.1652 -58.463 -18.6333
LeftHand  -0.128857 5.94851 12.4379
RightShoulder  0.685589 -6.95992 -31.6738
RightArm  -70.7688 19.5862 13.5044
RightForeArm  14.765 68.6786 29.3587
RightHand  -12.3916 15.0619 -63.481
LeftUpLeg  1.82316 0.559396 2.03215
LeftLeg  5.3329 2.51331 0.840203
LeftFoot  37.1995 4.97302 -11.5441
LeftToes  6.82088e-011 -2.45093e-011 5.71991e-013
216
root  -44.3134 46.7474 -2.98536 -176.677 -35.6449 171.916
RightUpLeg  -2.22383 -7.18792 -11.2859
RightLeg  12.4124 -5.64167 -2.47638
RightFoot  36.6226 -8.91965 20.5281
RightToes  -5.8209e-011 0 -3.6325e-017
Spine  -3.3312 -0.525762 -0.0848439
Spine1  -5.30867 -0.0538374 -3.13366
HEad  -3.64597 -0.346999 -1.54776
LeftShoulder1  1.12539 9.08869 32.2886
LeftArm  -59.3673 -32.2769 -11.956
LeftForeArm  -4.78037 -58.3927 -18.994
LeftHand  -0.459317 1.93611 15.1242
RightShoulder  0.609605 -6.35101 -33.4073
RightArm  -68.1896 16.8332 12.3818
RightForeArm  18.2058 70.6379 32.9118
RightHand  -11.8993 15.0148 -61.5279
LeftUpLeg  -0.280793 1.65433 2.88167
LeftLeg  4.73478 8.07016 0.775403
LeftFoot  36.512 5.05981 -11.9059
LeftToes  6.82088e-011 -2.45093e-011 5.71991e-013
217
root  -44.4447 46.1827 -2.61079 -176.84 -34.8853 171.396
RightUpLeg  -0.998669 -9.77402 -10.8817
RightLeg  12.7148 -9.0709 -2.5076
RightFoot  36.5117 -9.46812 21.7502
RightToes  -5.8209e-011 0 -3.6325e-017
Spine  -1.87144 -0.659217 -1.72014
Spine1  -6.15911 -0.36698 -1.88218
HEad  -5.37839 -0.838885 -2.71166
LeftShoulder1  0.656315 6.84793 31.7982
LeftArm  -54.3426 -26.6548 -12.0857
LeftForeArm  -2.42465 -61.4703 -21.8082
LeftHand  -0.514094 2.05771 17.9351
RightShoulder  0.522392 -5.74855 -35.124
RightArm  -66.4123 12.2633 13.9891
RightForeArm  23.1027 73.1782 39.6145
RightHand  -11.194 14.683 -59.2896
LeftUpLeg  -1.18207 1.47584 3.06982
LeftLeg  6.10024 5.9826 1.15969
LeftFoot  32.6492 4.1385 -10.7144
LeftToes  6.82088e-011 -2.45093e-011 5.71991e-013
218
root  -44.5612 45.2918 -2.05978 -178.275 -34.0374 171.19
RightUpLeg  0.309332 -10.1551 -10.19
RightLeg  13.3492 -10.6024 -2.89603
RightFoot  34.9359 -7.78669 18.6821
RightToes  -5.8209e-011 0 -3.6325e-017
Spine  1.76488 -1.0759 -2.03413
Spine1  -7.16898 -0.879523 -1.47933
HEad  -7.79586 -2.31705 -3.70327
LeftShoulder1  0.711922 7.46488 30.0401
LeftArm  -47.3214 -21.4372 -16.0058
LeftForeArm  12.479 -70.9225 -35.6357
LeftHand  -0.472104 2.6947 20.0422
RightShoulder  0.633157 -6.45062 -33.629
RightArm  -67.5781 10.8646 15.7649
RightForeArm  42.0687 77.2637 58.6136
RightHand  -10.4344 14.4236 -56.5182
LeftUpLeg  -1.3785 -0.211102 2.75381
LeftLeg  7.08699 -0.576496 1.55612
LeftFoot  28.1577 3.16518 -9.31265
LeftToes  6.82088e-011 -2.45093e-011 5.71991e-013
219
root  -44.7788 44.0638 -1.43465 -178.426 -30.7091 171.323
RightUpLeg  -2.70444 -9.48734 -9.09905
RightLeg  17.8409 -12.265 -4.58255
RightFoot  31.293 -5.58234 14.7963
RightToes  -5.8209e-011 0 -3.6325e-017
Spine  2.45782 -0.651971 -0.437652
Spine1  -5.97752 -0.242554 -2.44188
HEad  -9.70555 -4.67362 -2.4314
LeftShoulder1  0.734674 8.0306 27.9464
LeftArm  -34.2667 -14.1761 -21.0338
LeftForeArm  50.8695 -78.4266 -69.2295
LeftHand  -0.695785 1.74298 22.0176
RightShoulder  0.726931 -7.56347 -29.5582
RightArm  -67.167 11.5475 17.5354
RightForeArm  78.1381 79.135 94.4392
RightHand  -9.84661 14.1085 -54.6917
LeftUpLeg  -2.68235 -3.16661 2.69787
LeftLeg  7.44958 -5.86274 1.551
LeftFoot  25.0795 3.42475 -10.8865
LeftToes  6.82088e-011 -2.45093e-011 5.71991e-013
